
<svg version="1.0" xmlns="http://www.w3.org/2000/svg"
 width="15px" height="15px" viewBox="0 0 30.000000 30.000000"
 preserveAspectRatio="xMidYMid meet">

<g transform="translate(0.000000,30.000000) scale(0.100000,-0.100000)"
fill="#000000" stroke="none">
<path d="M184 255 c-4 -9 -2 -21 4 -27 15 -15 44 -1 40 19 -4 23 -36 29 -44 8z"/>
<path d="M85 200 c-24 -26 -11 -39 15 -15 26 23 34 15 19 -18 -10 -23 -8 -30
15 -57 14 -17 26 -42 26 -56 0 -13 5 -24 10 -24 14 0 12 74 -2 88 -10 10 -8
19 6 43 25 42 15 59 -32 59 -26 0 -45 -7 -57 -20z"/>
<path d="M195 172 c-2 -3 -2 -9 1 -13 7 -12 64 -12 64 0 0 9 -57 21 -65 13z"/>
<path d="M85 110 c-3 -5 -17 -10 -31 -10 -13 0 -24 -4 -24 -10 0 -15 66 -12
79 3 11 13 6 27 -10 27 -4 0 -11 -4 -14 -10z"/>
</g>
</svg>
