<svg version="1.0" xmlns="http://www.w3.org/2000/svg"
 width="15px" height="15px" viewBox="0 0 50.000000 50.000000"
 preserveAspectRatio="xMidYMid meet">

<g transform="translate(0.000000,50.000000) scale(0.100000,-0.100000)"
fill="#000000" stroke="none">
<path d="M427 482 c-40 -13 -65 -34 -149 -126 -56 -61 -110 -120 -120 -131
-17 -19 -19 -19 -48 -1 -25 14 -34 15 -45 6 -20 -17 -19 -30 6 -56 l21 -22
-22 -30 c-12 -16 -33 -35 -46 -41 -49 -22 -16 -92 36 -76 10 3 22 14 25 24 3
9 19 28 36 40 l31 23 22 -21 c26 -25 39 -26 56 -6 9 11 8 20 -6 45 -16 26 -16
32 -4 44 8 7 67 60 130 118 104 95 117 111 133 160 9 30 17 58 17 61 0 10 -19
7 -73 -11z m37 -34 c-4 -13 -10 -32 -14 -43 -4 -12 -57 -66 -116 -121 -147
-134 -140 -129 -160 -110 -20 20 -24 13 113 162 68 74 113 114 135 121 48 16
50 15 42 -9z m-274 -326 c16 -22 26 -43 22 -46 -8 -9 -142 125 -136 135 8 13
82 -46 114 -89z m-76 -35 c-35 -27 -54 -9 -28 26 17 23 21 24 36 10 16 -15 16
-17 -8 -36z m-46 -40 c4 -20 -25 -34 -40 -19 -15 15 -1 44 19 40 10 -2 19 -11
21 -21z"/>
</g>
</svg>
